<svg width="20" height="95" viewBox="0 0 20 95" fill="none" xmlns="http://www.w3.org/2000/svg">
<path d="M10 0C4.486 0 0 3.589 0 8C0 10.908 1.898 13.516 5 14.934V20L10.34 15.995C15.697 15.852 20 12.32 20 8C20 3.589 15.514 0 10 0ZM10 14H9.667L7 16V13.583L6.359 13.336C3.67 12.301 2 10.256 2 8C2 4.691 5.589 2 10 2C14.411 2 18 4.691 18 8C18 11.309 14.411 14 10 14Z" fill="#C5C7FF"/>
<path d="M10 75C4.486 75 0 78.589 0 83C0 85.908 1.898 88.516 5 89.934V95L10.34 90.995C15.697 90.852 20 87.32 20 83C20 78.589 15.514 75 10 75ZM10 89H9.667L7 91V88.583L6.359 88.336C3.67 87.301 2 85.256 2 83C2 79.691 5.589 77 10 77C14.411 77 18 79.691 18 83C18 86.309 14.411 89 10 89Z" fill="#C5C7FF"/>
</svg>
